<svg width="135" height="26" viewBox="0 0 135 26" fill="none" xmlns="http://www.w3.org/2000/svg">
<path d="M6.296 19.168C5.176 19.168 4.168 18.976 3.272 18.592C2.376 18.192 1.672 17.632 1.16 16.912C0.648 16.192 0.392 15.352 0.392 14.392H3.32C3.384 15.112 3.664 15.704 4.16 16.168C4.672 16.632 5.384 16.864 6.296 16.864C7.24 16.864 7.976 16.64 8.504 16.192C9.032 15.728 9.296 15.136 9.296 14.416C9.296 13.856 9.128 13.4 8.792 13.048C8.472 12.696 8.064 12.424 7.568 12.232C7.088 12.04 6.416 11.832 5.552 11.608C4.464 11.32 3.576 11.032 2.888 10.744C2.216 10.44 1.64 9.976 1.16 9.352C0.68 8.728 0.44 7.896 0.44 6.856C0.44 5.896 0.68 5.056 1.16 4.336C1.64 3.616 2.312 3.064 3.176 2.68C4.04 2.296 5.04 2.104 6.176 2.104C7.792 2.104 9.112 2.512 10.136 3.328C11.176 4.128 11.752 5.232 11.864 6.64H8.84C8.792 6.032 8.504 5.512 7.976 5.08C7.448 4.648 6.752 4.432 5.888 4.432C5.104 4.432 4.464 4.632 3.968 5.032C3.472 5.432 3.224 6.008 3.224 6.76C3.224 7.272 3.376 7.696 3.68 8.032C4 8.352 4.4 8.608 4.88 8.8C5.36 8.992 6.016 9.2 6.848 9.424C7.952 9.728 8.848 10.032 9.536 10.336C10.24 10.64 10.832 11.112 11.312 11.752C11.808 12.376 12.056 13.216 12.056 14.272C12.056 15.12 11.824 15.92 11.36 16.672C10.912 17.424 10.248 18.032 9.368 18.496C8.504 18.944 7.48 19.168 6.296 19.168ZM18.4764 8.008V15.328C18.4764 15.824 18.5884 16.184 18.8124 16.408C19.0524 16.616 19.4524 16.72 20.0124 16.72H21.6924V19H19.5324C18.3004 19 17.3564 18.712 16.7004 18.136C16.0444 17.56 15.7164 16.624 15.7164 15.328V8.008H14.1564V5.776H15.7164V2.488H18.4764V5.776H21.6924V8.008H18.4764ZM23.3021 12.328C23.3021 11 23.5741 9.824 24.1181 8.8C24.6781 7.776 25.4301 6.984 26.3741 6.424C27.3341 5.848 28.3901 5.56 29.5421 5.56C30.5821 5.56 31.4861 5.768 32.2541 6.184C33.0381 6.584 33.6621 7.088 34.1261 7.696V5.776H36.8861V19H34.1261V17.032C33.6621 17.656 33.0301 18.176 32.2301 18.592C31.4301 19.008 30.5181 19.216 29.4941 19.216C28.3581 19.216 27.3181 18.928 26.3741 18.352C25.4301 17.76 24.6781 16.944 24.1181 15.904C23.5741 14.848 23.3021 13.656 23.3021 12.328ZM34.1261 12.376C34.1261 11.464 33.9341 10.672 33.5501 10C33.1821 9.328 32.6941 8.816 32.0861 8.464C31.4781 8.112 30.8221 7.936 30.1181 7.936C29.4141 7.936 28.7581 8.112 28.1501 8.464C27.5421 8.8 27.0461 9.304 26.6621 9.976C26.2941 10.632 26.1101 11.416 26.1101 12.328C26.1101 13.24 26.2941 14.04 26.6621 14.728C27.0461 15.416 27.5421 15.944 28.1501 16.312C28.7741 16.664 29.4301 16.84 30.1181 16.84C30.8221 16.84 31.4781 16.664 32.0861 16.312C32.6941 15.96 33.1821 15.448 33.5501 14.776C33.9341 14.088 34.1261 13.288 34.1261 12.376ZM52.3837 5.776L44.2717 25.216H41.4397L44.1277 18.784L38.9197 5.776H41.9677L45.6877 15.856L49.5517 5.776H52.3837Z" fill="#3656E6"/>
<path d="M53.5364 12.376C53.5364 11.016 53.8084 9.824 54.3524 8.8C54.9124 7.76 55.6804 6.96 56.6564 6.4C57.6324 5.84 58.7524 5.56 60.0164 5.56C61.6164 5.56 62.9364 5.944 63.9764 6.712C65.0324 7.464 65.7444 8.544 66.1124 9.952H63.1604C62.9204 9.296 62.5364 8.784 62.0084 8.416C61.4804 8.048 60.8164 7.864 60.0164 7.864C58.8964 7.864 58.0004 8.264 57.3284 9.064C56.6724 9.848 56.3444 10.952 56.3444 12.376C56.3444 13.8 56.6724 14.912 57.3284 15.712C58.0004 16.512 58.8964 16.912 60.0164 16.912C61.6004 16.912 62.6484 16.216 63.1604 14.824H66.1124C65.7284 16.168 65.0084 17.24 63.9524 18.04C62.8964 18.824 61.5844 19.216 60.0164 19.216C58.7524 19.216 57.6324 18.936 56.6564 18.376C55.6804 17.8 54.9124 17 54.3524 15.976C53.8084 14.936 53.5364 13.736 53.5364 12.376ZM67.9271 12.328C67.9271 11 68.1991 9.824 68.7431 8.8C69.3031 7.776 70.0551 6.984 70.9991 6.424C71.9591 5.848 73.0151 5.56 74.1671 5.56C75.2071 5.56 76.1111 5.768 76.8791 6.184C77.6631 6.584 78.2871 7.088 78.7511 7.696V5.776H81.5111V19H78.7511V17.032C78.2871 17.656 77.6551 18.176 76.8551 18.592C76.0551 19.008 75.1431 19.216 74.1191 19.216C72.9831 19.216 71.9431 18.928 70.9991 18.352C70.0551 17.76 69.3031 16.944 68.7431 15.904C68.1991 14.848 67.9271 13.656 67.9271 12.328ZM78.7511 12.376C78.7511 11.464 78.5591 10.672 78.1751 10C77.8071 9.328 77.3191 8.816 76.7111 8.464C76.1031 8.112 75.4471 7.936 74.7431 7.936C74.0391 7.936 73.3831 8.112 72.7751 8.464C72.1671 8.8 71.6711 9.304 71.2871 9.976C70.9191 10.632 70.7351 11.416 70.7351 12.328C70.7351 13.24 70.9191 14.04 71.2871 14.728C71.6711 15.416 72.1671 15.944 72.7751 16.312C73.3991 16.664 74.0551 16.84 74.7431 16.84C75.4471 16.84 76.1031 16.664 76.7111 16.312C77.3191 15.96 77.8071 15.448 78.1751 14.776C78.5591 14.088 78.7511 13.288 78.7511 12.376ZM88.2967 8.008V15.328C88.2967 15.824 88.4087 16.184 88.6327 16.408C88.8727 16.616 89.2727 16.72 89.8327 16.72H91.5127V19H89.3527C88.1207 19 87.1767 18.712 86.5207 18.136C85.8647 17.56 85.5367 16.624 85.5367 15.328V8.008H83.9767V5.776H85.5367V2.488H88.2967V5.776H91.5127V8.008H88.2967ZM95.4264 4.024C94.9304 4.024 94.5144 3.856 94.1784 3.52C93.8424 3.184 93.6744 2.768 93.6744 2.272C93.6744 1.776 93.8424 1.36 94.1784 1.024C94.5144 0.687999 94.9304 0.519999 95.4264 0.519999C95.9064 0.519999 96.3144 0.687999 96.6504 1.024C96.9864 1.36 97.1544 1.776 97.1544 2.272C97.1544 2.768 96.9864 3.184 96.6504 3.52C96.3144 3.856 95.9064 4.024 95.4264 4.024ZM96.7704 5.776V19H94.0344V5.776H96.7704ZM106.099 19.216C104.851 19.216 103.723 18.936 102.715 18.376C101.707 17.8 100.915 17 100.339 15.976C99.7625 14.936 99.4745 13.736 99.4745 12.376C99.4745 11.032 99.7705 9.84 100.363 8.8C100.955 7.76 101.763 6.96 102.787 6.4C103.811 5.84 104.955 5.56 106.219 5.56C107.483 5.56 108.627 5.84 109.651 6.4C110.675 6.96 111.483 7.76 112.075 8.8C112.667 9.84 112.963 11.032 112.963 12.376C112.963 13.72 112.659 14.912 112.051 15.952C111.443 16.992 110.611 17.8 109.555 18.376C108.515 18.936 107.363 19.216 106.099 19.216ZM106.099 16.84C106.803 16.84 107.459 16.672 108.067 16.336C108.691 16 109.195 15.496 109.579 14.824C109.963 14.152 110.155 13.336 110.155 12.376C110.155 11.416 109.971 10.608 109.603 9.952C109.235 9.28 108.747 8.776 108.139 8.44C107.531 8.104 106.875 7.936 106.171 7.936C105.467 7.936 104.811 8.104 104.203 8.44C103.611 8.776 103.139 9.28 102.787 9.952C102.435 10.608 102.259 11.416 102.259 12.376C102.259 13.8 102.619 14.904 103.339 15.688C104.075 16.456 104.995 16.84 106.099 16.84ZM122.339 5.56C123.379 5.56 124.307 5.776 125.123 6.208C125.955 6.64 126.603 7.28 127.067 8.128C127.531 8.976 127.763 10 127.763 11.2V19H125.051V11.608C125.051 10.424 124.755 9.52 124.163 8.896C123.571 8.256 122.763 7.936 121.739 7.936C120.715 7.936 119.899 8.256 119.291 8.896C118.699 9.52 118.403 10.424 118.403 11.608V19H115.667V5.776H118.403V7.288C118.851 6.744 119.419 6.32 120.107 6.016C120.811 5.712 121.555 5.56 122.339 5.56ZM132.357 19.168C131.861 19.168 131.445 19 131.109 18.664C130.773 18.328 130.605 17.912 130.605 17.416C130.605 16.92 130.773 16.504 131.109 16.168C131.445 15.832 131.861 15.664 132.357 15.664C132.837 15.664 133.245 15.832 133.581 16.168C133.917 16.504 134.085 16.92 134.085 17.416C134.085 17.912 133.917 18.328 133.581 18.664C133.245 19 132.837 19.168 132.357 19.168Z" fill="#152C5B"/>
</svg>
