<svg width="270" height="60" viewBox="0 0 270 60" fill="none" xmlns="http://www.w3.org/2000/svg">
<circle cx="25" cy="30" r="25" fill="#1ABC9C"/>
<path d="M14 29L21.0715 36.3435C21.9142 37.2186 23.3361 37.1465 24.0859 36.1905L36 21" stroke="white" stroke-width="4" stroke-linecap="round"/>
<circle cx="135" cy="30" r="29.5" fill="white" stroke="#E5E5E5"/>
<circle cx="135" cy="30" r="25" fill="#E5E5E5"/>
<path d="M129.224 36.68C132.168 34.472 134.44 32.496 136.04 30.752C137.656 28.992 138.464 27.272 138.464 25.592C138.464 24.488 138.184 23.608 137.624 22.952C137.08 22.28 136.184 21.944 134.936 21.944C133.72 21.944 132.776 22.328 132.104 23.096C131.448 23.848 131.08 24.856 131 26.12H129.368C129.464 24.344 130.008 22.968 131 21.992C132.008 21 133.32 20.504 134.936 20.504C136.488 20.504 137.744 20.944 138.704 21.824C139.664 22.688 140.144 23.92 140.144 25.52C140.144 27.456 139.336 29.336 137.72 31.16C136.12 32.968 134.144 34.736 131.792 36.464H140.672V37.88H129.224V36.68Z" fill="#898989"/>
<circle cx="245" cy="30" r="25" fill="#E5E5E5"/>
<path d="M238.488 25.184C238.6 23.728 239.16 22.584 240.168 21.752C241.192 20.904 242.512 20.48 244.128 20.48C245.2 20.48 246.12 20.672 246.888 21.056C247.656 21.44 248.232 21.968 248.616 22.64C249.016 23.296 249.216 24.04 249.216 24.872C249.216 25.88 248.92 26.752 248.328 27.488C247.736 28.224 246.896 28.68 245.808 28.856V28.976C246.944 29.2 247.848 29.696 248.52 30.464C249.192 31.216 249.528 32.208 249.528 33.44C249.528 34.816 249.064 35.944 248.136 36.824C247.224 37.688 245.896 38.12 244.152 38.12C242.488 38.12 241.12 37.688 240.048 36.824C238.976 35.944 238.36 34.704 238.2 33.104H239.832C239.976 34.176 240.424 35.048 241.176 35.72C241.928 36.376 242.92 36.704 244.152 36.704C245.368 36.704 246.296 36.384 246.936 35.744C247.592 35.104 247.92 34.288 247.92 33.296C247.92 30.864 246.168 29.648 242.664 29.648H242.136V28.232H242.688C245.952 28.232 247.584 27.168 247.584 25.04C247.584 24.112 247.28 23.368 246.672 22.808C246.064 22.232 245.2 21.944 244.08 21.944C242.992 21.944 242.088 22.232 241.368 22.808C240.664 23.368 240.248 24.16 240.12 25.184H238.488Z" fill="#898989"/>
</svg>
