<svg width="275" height="60" viewBox="0 0 275 60" fill="none" xmlns="http://www.w3.org/2000/svg">
<circle cx="30" cy="30" r="29.5" fill="white" stroke="#E5E5E5"/>
<circle cx="30" cy="30" r="25" fill="#E5E5E5"/>
<path d="M26.08 23V20.504H31.072V38H28.312V23H26.08Z" fill="#898989"/>
<circle cx="140" cy="30" r="25" fill="#E5E5E5"/>
<path d="M134.224 36.68C137.168 34.472 139.44 32.496 141.04 30.752C142.656 28.992 143.464 27.272 143.464 25.592C143.464 24.488 143.184 23.608 142.624 22.952C142.08 22.28 141.184 21.944 139.936 21.944C138.72 21.944 137.776 22.328 137.104 23.096C136.448 23.848 136.08 24.856 136 26.12H134.368C134.464 24.344 135.008 22.968 136 21.992C137.008 21 138.32 20.504 139.936 20.504C141.488 20.504 142.744 20.944 143.704 21.824C144.664 22.688 145.144 23.92 145.144 25.52C145.144 27.456 144.336 29.336 142.72 31.16C141.12 32.968 139.144 34.736 136.792 36.464H145.672V37.88H134.224V36.68Z" fill="#898989"/>
<circle cx="250" cy="30" r="25" fill="#E5E5E5"/>
<path d="M243.488 25.184C243.6 23.728 244.16 22.584 245.168 21.752C246.192 20.904 247.512 20.48 249.128 20.48C250.2 20.48 251.12 20.672 251.888 21.056C252.656 21.44 253.232 21.968 253.616 22.64C254.016 23.296 254.216 24.04 254.216 24.872C254.216 25.88 253.92 26.752 253.328 27.488C252.736 28.224 251.896 28.68 250.808 28.856V28.976C251.944 29.2 252.848 29.696 253.52 30.464C254.192 31.216 254.528 32.208 254.528 33.44C254.528 34.816 254.064 35.944 253.136 36.824C252.224 37.688 250.896 38.12 249.152 38.12C247.488 38.12 246.12 37.688 245.048 36.824C243.976 35.944 243.36 34.704 243.2 33.104H244.832C244.976 34.176 245.424 35.048 246.176 35.72C246.928 36.376 247.92 36.704 249.152 36.704C250.368 36.704 251.296 36.384 251.936 35.744C252.592 35.104 252.92 34.288 252.92 33.296C252.92 30.864 251.168 29.648 247.664 29.648H247.136V28.232H247.688C250.952 28.232 252.584 27.168 252.584 25.04C252.584 24.112 252.28 23.368 251.672 22.808C251.064 22.232 250.2 21.944 249.08 21.944C247.992 21.944 247.088 22.232 246.368 22.808C245.664 23.368 245.248 24.16 245.12 25.184H243.488Z" fill="#898989"/>
</svg>
